<svg xmlns="http://www.w3.org/2000/svg" height="512" width="512" xmlns:v="https://vecta.io/nano"><path d="M467.738 0H44.261C19.855 0 0 19.855 0 44.261v45h512v-45C512 19.855 492.145 0 467.738 0zM85.609 61.507H65.108c-8.284 0-15-6.716-15-15s6.716-15 15-15h20.501c8.284 0 15 6.716 15 15s-6.715 15-15 15zm64 0h-20.501c-8.284 0-15-6.716-15-15s6.716-15 15-15h20.501c8.284 0 15 6.716 15 15s-6.715 15-15 15zm64 0h-20.501c-8.284 0-15-6.716-15-15s6.716-15 15-15h20.501c8.284 0 15 6.716 15 15s-6.715 15-15 15zM85.15 194.64h341.93v80H85.15zM0 467.74C0 492.14 19.86 512 44.26 512h423.48c24.4 0 44.26-19.86 44.26-44.26V119.26H0zm442.25-4.12h-29.48a15.01 15.01 0 0 1-15-15 15.01 15.01 0 0 1 15-15h29.48a15.01 15.01 0 0 1 15 15 15.01 15.01 0 0 1-15 15zM55.15 179.64c0-8.28 6.71-15 15-15h371.93a15.01 15.01 0 0 1 15 15v110c0 8.29-6.72 15-15 15H70.15c-8.29 0-15-6.71-15-15zm15 150h327.62c8.29 0 15 6.72 15 15 0 8.29-6.71 15-15 15H70.15c-8.29 0-15-6.71-15-15 0-8.28 6.71-15 15-15zm0 53h134.54a15.01 15.01 0 0 1 15 15c0 8.29-6.72 15-15 15H70.15c-8.29 0-15-6.71-15-15 0-8.28 6.71-15 15-15zm-3.37 50.98h286.51c8.29 0 15 6.72 15 15s-6.71 15-15 15H66.78c-8.29 0-15-6.72-15-15s6.71-15 15-15z"/></svg>