<svg xmlns="http://www.w3.org/2000/svg" height="512" width="512" shape-rendering="geometricPrecision" image-rendering="optimizeQuality" fill-rule="evenodd" xmlns:v="https://vecta.io/nano"><defs><linearGradient gradientUnits="userSpaceOnUse" id="A" x1="67.83" x2="474.19" y1="82.42" y2="389.98"><stop offset="0" stop-color="#3b5f9e"/><stop offset="1" stop-color="#178cc8"/></linearGradient></defs><path d="M256 0c141.39 0 256 114.61 256 256S397.39 512 256 512 0 397.39 0 256 114.61 0 256 0z" fill="url(#A)"/><path d="M219.17 394.15c0 1.97 1.6 3.57 3.57 3.57h50.9c1.97 0 3.56-1.6 3.56-3.57V254.88h36.9c1.85 0 3.4-1.42 3.55-3.27l3.55-41.96c.18-2.08-1.46-3.87-3.55-3.87H277.2v-29.77c0-6.98 5.66-12.63 12.64-12.63h28.43c1.98 0 3.57-1.6 3.57-3.57v-41.97c0-1.97-1.59-3.57-3.57-3.57h-48.04c-28.2 0-51.06 22.86-51.06 51.05v40.46h-25.44c-1.97 0-3.57 1.6-3.57 3.57v41.96c0 1.98 1.6 3.57 3.57 3.57h25.44v139.27z" fill="#fff"/></svg>