<svg xmlns="http://www.w3.org/2000/svg" xmlns:xlink="http://www.w3.org/1999/xlink" viewBox="0 0 48 48" xmlns:v="https://vecta.io/nano"><ellipse cx="24" cy="45.5" rx="17.5" ry="1.5" fill="#45413c" opacity=".15"/><g stroke="#45413c" stroke-linejoin="round"><path d="M6.5,24c0,3.59,7.84,6.5,17.5,6.5S41.5,27.59,41.5,24V39c0,3.59-7.84,6.5-17.5,6.5S6.5,42.59,6.5,39Z" fill="#bf8256"/><path d="M6.5,30c0,3.59,7.84,6.5,17.5,6.5S41.5,33.59,41.5,30v5c0,3.59-7.84,6.5-17.5,6.5S6.5,38.59,6.5,35Z" fill="#ffe3cf"/></g><use xlink:href="#B" fill="#ff6242"/><path d="M24,20c7.41,0,14,1,18.08,2.63C40.29,19.7,32.88,17.5,24,17.5S7.71,19.7,5.92,22.63C10,21,16.59,20,24,20Z" fill="#ff866e"/><g stroke-linejoin="round"><g fill="none"><use xlink:href="#B" stroke="#45413c"/><path d="M40.5,24c0,2.49-7.39,4.5-16.5,4.5S7.5,26.49,7.5,24" stroke-linecap="round" stroke="#e04122"/></g><g stroke="#45413c"><use xlink:href="#C" fill="#fffef2"/><path d="M15.2 11.55a2.37 2.37 0 0 0 4.62 1.1c.41-1.73-2.23-2-2.17-4.58a5 5 0 0 0-2.45 3.48z" fill="#ffe500"/><use xlink:href="#C" x="-6" y="-3" fill="#fffef2"/><path d="M9.2,8.55a2.37,2.37,0,0,0,4.62,1.1c.41-1.73-2.23-2-2.17-4.58A5,5,0,0,0,9.2,8.55Z" fill="#ffe500"/><path d="M38.5,22.5v-8a1,1,0,0,0-1-1h-2a1,1,0,0,0-1,1v8a2.5,2.5,0,0,0,4,0Z" fill="#fffef2"/><path d="M34.2,8.55a2.37,2.37,0,1,0,4.62,1.1c.41-1.73-2.23-2-2.17-4.58A5,5,0,0,0,34.2,8.55Z" fill="#ffe500"/><use xlink:href="#C" x="13" fill="#fffef2"/><path d="M28.2 11.55a2.37 2.37 0 0 0 4.62 1.1c.41-1.73-2.23-2-2.17-4.58a5 5 0 0 0-2.45 3.48z" fill="#ffe500"/><use xlink:href="#C" x="6.5" y="-6" fill="#fffef2"/><path d="M21.7,5.55a2.37,2.37,0,0,0,4.62,1.1c.41-1.73-2.23-2-2.17-4.58A5,5,0,0,0,21.7,5.55Z" fill="#ffe500"/></g></g><defs ><path id="B" d="M30.5,33.5a.5.5,0,0,1,1,0,2.5,2.5,0,0,0,5,0v-2a1.5,1.5,0,0,1,3,0,1.5,1.5,0,0,0,3,0V24c0-3.59-8.28-6.5-18.5-6.5S5.5,20.41,5.5,24v8a1.5,1.5,0,0,0,3,0,1.5,1.5,0,0,1,3,0v3a2.5,2.5,0,0,0,5,0,1.5,1.5,0,0,1,3,0v1a1.5,1.5,0,0,0,3,0v-.5a2.5,2.5,0,0,1,5,0V37a1.5,1.5,0,0,0,3,0Z"/><path id="C" d="M19.5 25.5v-8a1 1 0 0 0-1-1h-2a1 1 0 0 0-1 1v8a2.17 2.17 0 0 0 2 1 2.17 2.17 0 0 0 2-1z"/></defs></svg>