<svg xmlns="http://www.w3.org/2000/svg" height="682.667" viewBox="0 0 512 512" width="682.667" xmlns:v="https://vecta.io/nano"><path d="M498.195 222.695l-.035-.035L289.305 13.813C280.402 4.906 268.566 0 255.977 0s-24.426 4.902-33.332 13.809L13.898 222.551l-.211.215c-18.281 18.387-18.25 48.219.09 66.559 8.379 8.383 19.445 13.238 31.277 13.746.48.047.965.07 1.453.07h8.324V456.84C54.832 487.254 79.578 512 110 512h81.711c8.281 0 15-6.715 15-15V376.5c0-13.879 11.289-25.168 25.168-25.168h48.195c13.879 0 25.168 11.289 25.168 25.168V497c0 8.285 6.715 15 15 15h81.711c30.422 0 55.168-24.746 55.168-55.16V303.141h7.719c12.586 0 24.422-4.902 33.332-13.809 18.359-18.371 18.367-48.254.023-66.637zm0 0"/></svg>