<svg xmlns="http://www.w3.org/2000/svg" viewBox="0 0 64 64" xmlns:v="https://vecta.io/nano"><defs><radialGradient cx="-578.95" cy="-837.6" gradientTransform="translate(499.5 629.5) scale(0.75)" gradientUnits="userSpaceOnUse" id="A" r="197.06"><stop offset="0" stop-color="#f9ed32"/><stop offset=".36" stop-color="#ee2a7b"/><stop offset=".44" stop-color="#d22a8a"/><stop offset=".6" stop-color="#8b2ab2"/><stop offset=".83" stop-color="#1b2af0"/><stop offset=".88" stop-color="#002aff"/></radialGradient></defs><rect height="64" rx="11.2" transform="matrix(-1 0 0 -1 64 64)" width="64" fill="url(#A)"/><g fill="#fff"><path d="M44 56H20A12 12 0 0 1 8 44V20A12 12 0 0 1 20 8h24a12 12 0 0 1 12 12v24a12 12 0 0 1-12 12zM20 12.8a7.21 7.21 0 0 0-7.2 7.2v24a7.21 7.21 0 0 0 7.2 7.2h24a7.21 7.21 0 0 0 7.2-7.2V20a7.21 7.21 0 0 0-7.2-7.2zm12 32.8A13.6 13.6 0 1 1 45.6 32 13.61 13.61 0 0 1 32 45.6zm0-22.4a8.8 8.8 0 1 0 8.8 8.8 8.81 8.81 0 0 0-8.8-8.8z"/><circle cx="45.6" cy="19.2" r="2.4"/></g></svg>