<svg xmlns="http://www.w3.org/2000/svg" viewBox="0 0 151.54 220"><defs><style>.cls-1{fill:#771138;}</style></defs><g id="Layer_2" data-name="Layer 2"><g id="Layer_2-2" data-name="Layer 2"><path class="cls-1" d="M27.43,220H0V0H31.51c67.69,0,88.7,23.34,88.7,63.61,0,46.39-35.31,64.19-77,64.19H27.43Zm0-116.71h8.75c28,0,58.35-5.25,58.35-40.27,0-34.43-32.67-38.51-59.81-38.51H27.43Z"/><path class="cls-1" d="M100,149.25c-2.06-4.32-6.37-7.7-11.25-7.7-4.69,0-9.19,3.76-9.19,8.63,0,7.69,10.13,11.07,20.44,15.76s20.26,11.07,20.26,24.95c0,16.69-13.88,29.07-30.2,29.07-12.75,0-25.69-7.31-30.38-19.7l14.44-6.56C77.67,200.26,82,205,90.05,205c7.13,0,13.32-4.88,13.32-12.39,0-4.68-2.25-6.94-6.19-9.56l-16.51-8.82c-9.75-5.25-16.88-10.13-16.88-22.13a25.62,25.62,0,0,1,25.89-25.51c10.69,0,19.32,5.81,24,15.38Z"/><path class="cls-1" d="M151.54,207a12.89,12.89,0,1,1-25.78,0,12.89,12.89,0,1,1,25.78,0Z"/></g></g></svg>