<svg xmlns="http://www.w3.org/2000/svg" height="72" width="72" fill-rule="evenodd" xmlns:v="https://vecta.io/nano"><path d="M8 72h56a8 8 0 0 0 8-8V8a8 8 0 0 0-8-8H8a8 8 0 0 0-8 8v56a8 8 0 0 0 8 8z" fill="#cc2127"/><path d="M39.242 46.691c-2.971 0-5.766-1.611-6.723-3.438l-1.935 7.578c-1.19 4.333-4.696 8.669-4.969 9.022-.189.248-.608.17-.652-.155-.076-.553-.97-6.02.081-10.48l3.54-15.024s-.88-1.761-.88-4.363c0-4.086 2.364-7.136 5.309-7.136 2.502 0 3.712 1.883 3.712 4.139 0 2.522-1.603 6.289-2.431 9.784-.688 2.925 1.468 5.309 4.343 5.309 5.214 0 8.726-6.709 8.726-14.659 0-6.041-4.06-10.564-11.45-10.564-8.345 0-13.549 6.236-13.549 13.205 0 2.4.708 4.097 1.817 5.406.51.603.58.845.396 1.536l-.561 2.214c-.184.698-.749.948-1.379.689C18.795 38.186 17 33.966 17 29.224 17 21.392 23.595 12 36.669 12c10.507 0 17.422 7.616 17.422 15.794 0 10.817-6.001 18.897-14.849 18.897" fill="#fff"/></svg>