<svg xmlns="http://www.w3.org/2000/svg" viewBox="0 0 1009.982 1009.953" xmlns:v="https://vecta.io/nano"><path fill="#f6ab38" d="M504.976 1009.953c278.875 0 505.006-226.096 505.006-504.988C1009.982 226.102 783.851 0 504.976 0 226.096 0 0 226.102 0 504.964c0 278.893 226.096 504.988 504.976 504.988z"/><path d="M400.861 578.295h208.248c31.059-.036 56.324-25.302 56.372-56.372V313.705c0-.745-.263-1.454-.429-2.181-.096-.388-.096-.769-.238-1.145-.477-1.233-1.168-2.383-2.098-3.325l-46.957-46.962c-.977-.971-2.169-1.645-3.456-2.11-.405-.154-.835-.166-1.287-.256-.62-.137-1.239-.381-1.907-.381H400.861c-31.058.03-56.325 25.302-56.36 56.36v208.219c.035 31.07 25.302 56.336 56.36 56.372zm212.801-293.724l26.124 26.13c-1.859.417-3.623.607-5.22.607-6.126-.041-10.894-2.55-14.731-6.996-3.79-4.44-6.245-10.941-6.222-18.026 0-.56 0-1.132.048-1.716zm-250.355 29.133c.023-20.612 16.959-37.541 37.553-37.583h195.091c-.691 3.408-1.12 6.817-1.12 10.166 0 11.304 3.766 21.994 10.678 30.164 6.794 8.134 17.114 13.641 28.913 13.641h.144c3.957.006 8.009-.662 12.108-1.853v193.685c-.024 20.606-16.972 37.542-37.566 37.578H400.861c-20.594-.036-37.53-16.972-37.553-37.578V313.705zm287.634 419.549H359.053c-8.14 0-14.707 6.59-14.731 14.719 0 1.632.345 3.17.822 4.636h319.693c.476-1.466.811-3.004.811-4.636 0-8.129-6.579-14.719-14.707-14.719zm49.818-199.316h-15.97c-9.512 34.156-40.832 59.423-77.968 59.423H403.149c-37.125 0-68.445-25.267-77.956-59.423h-15.958c-60.388 0-109.335 48.936-109.335 109.335 0 60.377 48.947 109.336 109.335 109.336h20.761c-.238-1.502-.405-3.052-.405-4.636.012-16.269 13.181-29.45 29.438-29.45h291.913c16.256 0 29.414 13.182 29.414 29.45 0 1.584-.144 3.134-.382 4.636h20.785c60.376 0 109.335-48.959 109.335-109.336 0-60.399-48.959-109.335-109.335-109.335zm-79.874 94.616h-47.458a9.83 9.83 0 0 1-9.82-9.808c0-5.436 4.41-9.82 9.82-9.82h47.458c5.41 0 9.796 4.385 9.796 9.82a9.81 9.81 0 0 1-9.796 9.808zm43.333 8.593a18.4 18.4 0 0 1-18.401-18.4c0-10.166 8.224-18.426 18.401-18.426s18.426 8.26 18.426 18.426c0 10.153-8.247 18.4-18.426 18.4zM399.896 387.882h210.191c5.196 0 9.392-4.213 9.392-9.397 0-5.196-4.195-9.397-9.392-9.397H399.896c-5.172 0-9.403 4.201-9.403 9.397a9.42 9.42 0 0 0 9.403 9.397zm0-44.043h163.21a9.39 9.39 0 0 0 9.392-9.392 9.38 9.38 0 0 0-9.392-9.385h-163.21c-5.172 0-9.403 4.195-9.403 9.385 0 5.184 4.231 9.392 9.403 9.392zm0 88.08h210.191a9.397 9.397 0 1 0 0-18.794H399.896c-5.172 0-9.403 4.207-9.403 9.392 0 5.196 4.231 9.403 9.403 9.403zm0 44.025h210.191a9.394 9.394 0 1 0 0-18.789H399.896c-5.172 0-9.403 4.207-9.403 9.391 0 5.19 4.231 9.397 9.403 9.397zm0 44.037h210.191a9.39 9.39 0 0 0 9.392-9.403 9.4 9.4 0 0 0-9.392-9.392H399.896c-5.172 0-9.403 4.219-9.403 9.392 0 5.196 4.231 9.403 9.403 9.403z" fill="#fff"/></svg>