<svg xmlns="http://www.w3.org/2000/svg" viewBox="0 0 512 512" xmlns:v="https://vecta.io/nano"><path d="M341.333 138.667C341.333 60.906 303.854 0 256 0s-85.333 60.906-85.333 138.667c0 45.906 13.688 88.635 36.625 114.292 9.25 10.333 14.063 23.573 13.563 37.281l-6.375 178.729c-.396 11.375 3.729 22.146 11.625 30.333A41.19 41.19 0 0 0 256 512c11.375 0 22-4.51 29.896-12.698s12.021-18.958 11.625-30.333l-6.375-178.74c-.5-13.698 4.313-26.938 13.563-37.271 22.937-25.656 36.624-68.385 36.624-114.291zm-54.354 68.177c-1.729 4.052-5.667 6.49-9.813 6.49-1.396 0-2.813-.271-4.167-.854-5.438-2.302-7.958-8.563-5.646-13.99 6.333-14.927 9.979-36.729 9.979-59.823 0-5.896 4.771-10.667 10.667-10.667s10.667 4.771 10.667 10.667c.001 26.239-4.145 50.448-11.687 68.177z"/></svg>