<svg xmlns="http://www.w3.org/2000/svg" height="640" viewBox="0 0 480 480" width="640" xmlns:v="https://vecta.io/nano"><path d="M368 240c0 70.691-57.309 128-128 128s-128-57.309-128-128 57.309-128 128-128 128 57.309 128 128zM248 472v-64a8 8 0 1 0-16 0v64a8 8 0 1 0 16 0zm-8-392a8 8 0 0 0 8-8V8a8 8 0 1 0-16 0v64a8 8 0 0 0 8 8zm-125.656 45.656c3.141 3.031 8.129 2.988 11.215-.098s3.129-8.074.098-11.215l-48-48c-3.141-3.031-8.129-2.988-11.215.098s-3.129 8.074-.098 11.215zm0 0"/><path d="M365.656 354.344c-3.141-3.031-8.129-2.988-11.215.098s-3.129 8.074-.098 11.215l48 48c3.141 3.031 8.129 2.988 11.215-.098s3.129-8.074.098-11.215zM360 128a8 8 0 0 0 5.656-2.344l48-48c3.031-3.141 2.988-8.129-.098-11.215s-8.074-3.129-11.215-.098l-48 48c-2.285 2.289-2.973 5.73-1.734 8.719A8 8 0 0 0 360 128zm0 0"/><path d="M472 232h-64a8 8 0 1 0 0 16h64a8 8 0 1 0 0-16zM8 248h64a8 8 0 1 0 0-16H8a8 8 0 1 0 0 16zm69.656 165.656l48-48c3.031-3.141 2.988-8.129-.098-11.215s-8.074-3.129-11.215-.098l-48 48a8 8 0 0 0-2.18 7.781 7.99 7.99 0 0 0 5.711 5.711 8 8 0 0 0 7.781-2.18zm0 0"/></svg>