<svg xmlns="http://www.w3.org/2000/svg" width="30" height="30" fill="#1a1a1a" xmlns:v="https://vecta.io/nano"><g stroke="#d4d4d4"><path d="M358.89-52.609a13.63 13.63 0 0 1-20.445 11.804 13.63 13.63 0 0 1 0-23.608 13.63 13.63 0 0 1 20.445 11.804z"/><path d="M345.296-64.472v11.863m11.863 0h-1.709m-10.154 11.863v-2.018m-11.863-9.845h11.863"/></g><path d="M15 5.173c-1.039 0-1.927.603-2.355 1.477a3.31 3.31 0 0 0-2.441-1.07c-1.827 0-3.297 1.491-3.297 3.319a3.28 3.28 0 0 0 .235 1.22c-1.516.058-2.741 1.297-2.741 2.826 0 1.37.977 2.497 2.27 2.762-.322.46-.514 1.023-.514 1.627 0 1.566 1.281 2.826 2.848 2.826.173 0 .328-.036.492-.066a2.83 2.83 0 0 0 2.612 1.756c.693 0 1.306-.271 1.799-.685.506.776 1.381 1.285 2.377 1.285 1.273 0 2.339-.837 2.698-1.991.436.274.946.45 1.499.45 1.566 0 2.826-1.282 2.826-2.848 0-.419-.094-.799-.257-1.156 1.436-.14 2.548-1.354 2.548-2.826 0-.892-.406-1.664-1.049-2.184a2.28 2.28 0 0 0 .385-1.263c0-1.231-.996-2.227-2.227-2.227-.03 0-.056.027-.086.027.003-.052.022-.099.022-.151 0-1.566-1.281-2.826-2.848-2.826-.996 0-1.871.508-2.377 1.285A2.65 2.65 0 0 0 15 5.176zm-4.882 16.743c-.839 0-1.52.495-1.52 1.092s.681 1.071 1.52 1.071 1.52-.474 1.52-1.071-.681-1.092-1.52-1.092zm-2.741 1.156a.88.88 0 0 0-.878.878.88.88 0 0 0 .878.878.88.88 0 0 0 .878-.878.88.88 0 0 0-.878-.878z"/></svg>