<svg xmlns="http://www.w3.org/2000/svg" viewBox="0 0 1000 1000" xmlns:v="https://vecta.io/nano"><path d="M826.7 10H173.3C83.3 10 10 83.3 10 173.3v490c0 90.1 73.3 163.3 163.3 163.3h146.4L471.1 978c8 8 18.4 12 28.9 12 10.4 0 20.9-4 28.9-12l151.4-151.4h146.4c90.1 0 163.3-73.3 163.3-163.3v-490C990 83.3 916.7 10 826.7 10zm81.6 653.3c0 45-36.6 81.7-81.7 81.7H663.4c-.7 0-1.4 0-2.1.1h-.6c-.5 0-.9.1-1.4.1-.3 0-.7.1-1 .1s-.6.1-1 .1c-.4.1-.8.1-1.2.2-.3 0-.5.1-.8.1l-1.2.3c-.2.1-.5.1-.7.2l-1.2.3c-.2.1-.5.1-.7.2-.4.1-.8.2-1.1.4-.3.1-.5.2-.8.3s-.7.3-1 .4l-.9.3c-.3.1-.6.3-.9.4s-.6.3-.9.4-.6.3-.8.4c-.3.2-.6.3-1 .5-.3.1-.5.3-.8.4-.3.2-.6.4-1 .6-.3.2-.5.3-.8.5l-.9.6c-.3.2-.5.4-.8.6s-.5.4-.8.6-.7.5-1 .8c-.2.2-.4.3-.6.5-.5.4-.9.8-1.4 1.2l-.1.1c-.6.5-1.1 1-1.6 1.5L500 891.4 365.6 757.1c-.5-.5-1.1-1-1.6-1.5l-.1-.1c-.5-.4-.9-.8-1.4-1.2-.2-.1-.4-.3-.6-.4-.3-.3-.7-.5-1-.8-.3-.2-.5-.4-.8-.6s-.5-.4-.8-.6l-.9-.6c-.3-.2-.5-.3-.8-.5s-.6-.4-1-.5c-.3-.1-.5-.3-.8-.4-.3-.2-.6-.3-1-.5-.3-.1-.6-.3-.8-.4-.3-.1-.6-.3-.9-.4s-.6-.3-.9-.4-.6-.2-.8-.3c-.3-.1-.7-.3-1-.4s-.5-.2-.8-.3c-.4-.1-.8-.3-1.1-.4-.2-.1-.5-.1-.7-.2l-1.2-.3c-.2-.1-.5-.1-.7-.2l-1.2-.3c-.3-.1-.5-.1-.8-.1-.4-.1-.8-.1-1.2-.2-.3 0-.6-.1-1-.1-.3 0-.7-.1-1-.1-.5 0-.9-.1-1.4-.1h-.6c-.7 0-1.4-.1-2.1-.1H173.3c-45 0-81.7-36.6-81.7-81.7v-490c0-45 36.6-81.7 81.7-81.7h653.3c45 0 81.7 36.6 81.7 81.7v489.9zM745 214.2H255c-22.6 0-40.8 18.3-40.8 40.8 0 22.6 18.3 40.8 40.8 40.8h490c22.5 0 40.8-18.3 40.8-40.8s-18.3-40.8-40.8-40.8zm-490 245h285.8c22.5 0 40.8-18.3 40.8-40.8 0-22.6-18.3-40.8-40.8-40.8H255c-22.6 0-40.8 18.3-40.8 40.8s18.3 40.8 40.8 40.8zm408.3 81.6H255c-22.6 0-40.8 18.3-40.8 40.8s18.3 40.8 40.8 40.8h408.3c22.5 0 40.8-18.3 40.8-40.8.1-22.5-18.2-40.8-40.8-40.8z"/></svg>