<svg xmlns="http://www.w3.org/2000/svg" viewBox="0 0 54 54" xmlns:v="https://vecta.io/nano"><g fill="#4fba6f"><path d="M53 27h0c0 14.359-11.641 26-26 26h0C12.641 53 1 41.359 1 27h0C1 12.641 12.641 1 27 1h0c14.359 0 26 11.641 26 26z"/><path d="M27 54C12.112 54 0 41.888 0 27S12.112 0 27 0s27 12.112 27 27-12.112 27-27 27zm0-52C13.215 2 2 13.215 2 27s11.215 25 25 25 25-11.215 25-25S40.785 2 27 2z"/></g><path d="M39 32.706c-.256 0-.512-.098-.707-.293L27 21.12 15.707 32.413a1 1 0 0 1-1.414-1.414l11.498-11.498c.666-.666 1.752-.666 2.418 0l11.498 11.498a1 1 0 0 1 0 1.414c-.195.195-.451.293-.707.293z" fill="#fff"/></svg>